<?xml version="1.0" encoding="UTF-8"?>
<svg id="Camada_1" data-name="Camada 1" xmlns="http://www.w3.org/2000/svg" viewBox="0 0 128.423 128.276">
  <path d="M70.738,125.488c-3.75,3.75-9.46,3.64-12.98.13L2.788,70.718c-3.95-3.94-3.54-9.58.2-13.32L57.548,2.898c3.72-3.71,9.42-3.96,13.22-.16l54.95,54.91c3.46,3.46,3.69,9.21.17,12.72l-55.16,55.12h.01ZM64.318,73.878l31.2-16.63L64.198,5.818l-31.17,51.58,31.29,16.48h0ZM30.628,56.588L59.698,8.108,5.778,61.908c8.5-1.37,16.23-3.22,24.85-5.33v.01ZM122.788,62.108L68.858,8.358l28.91,48.3,25.02,5.44v.01ZM63.018,75.938l-31.92-16.91-26.29,6.33,58.03,57.9.19-47.32h-.01ZM123.588,65.358l-26.49-6.27-31.64,16.91c-.61,15.72-.81,30.82.32,47.14l57.81-57.78h0Z"/>
</svg>