<?xml version="1.0" encoding="UTF-8"?>
<svg id="Camada_1" data-name="Camada 1" xmlns="http://www.w3.org/2000/svg" viewBox="0 0 125.887 125.845">
  <path d="M124.224,48.595l-12.72-25c-1.9-3.73-4.52-6.88-8.31-8.79L76.214,1.175c-1.73-.87-5.21-1.39-7.12-1.09l-29.94,4.69c-3.03.47-6.71,2.04-8.92,4.25L8.954,30.295c-1.59,1.59-3.07,4.67-3.86,6.81L.094,69.095c-.36,2.33.36,5.76,1.44,7.88l13.38,26.29c1.55,3.04,4.18,5.93,7.22,7.47l27.07,13.73c2.02,1.02,5.63,1.63,7.85,1.28l31.29-4.93c1.72-.27,5.14-1.94,6.39-3.19l22.88-22.86c1.26-1.26,2.94-4.62,3.21-6.37l4.95-31.32c.41-2.61-.34-6.11-1.55-8.5v.02ZM115.714,87.955c-.07-.03-.14-.05-.21-.08-.11,1.49-.81,2.93-2.08,3.78l-23.78,23.8-34.43,5.37.1-.73c-.91.28-1.82.25-2.67,0l-.06.39-31.32-15.99-15.8-31.13.51-.08c-.41-.76-.62-1.63-.63-2.5l-.32.05,5.37-34.41,23.67-23.7c.29-.42.66-.79,1.09-1.09l.1-.1v.02c.34-.22.71-.39,1.12-.52.8-.8,1.92-1.31,3.38-1.31.41,0,.79.04,1.15.12,10.39-1.76,20.98-3.94,31.42-4.62,10.59,4.61,20.33,10.06,30.9,15.51l-.1.1c.93.4,1.62,1.08,2.08,1.89.01,0,.02-.02.03-.03l15.85,30.94-5.37,34.33v-.01Z"/>
</svg>