<?xml version="1.0" encoding="UTF-8"?>
<svg id="Camada_1" data-name="Camada 1" xmlns="http://www.w3.org/2000/svg" viewBox="0 0 122.43 126.719">
  <path d="M66.2,126.008c-3.24,1.06-7.15.88-10.39-.18l-28.05-9.13c-2.26-.74-5.2-2.66-6.59-4.56L2.09,85.978c-.95-2.08-2.09-5.3-2.09-7.55v-30.09c0-3.13,1.49-6.83,3.3-9.32L21.15,14.538c1.36-1.87,4.32-3.79,6.57-4.53L55.67.838c4.04-1.33,8.1-.97,12.1.33l26.67,8.69c2.54.83,5.55,2.77,7.11,4.91l18.65,25.65c1.04,1.43,2.23,4.99,2.23,6.77v32.34c-.01,1.77-1.25,5.37-2.27,6.78l-18.64,25.61c-1.32,1.81-4.3,3.94-6.46,4.64l-28.85,9.43-.01.02ZM23.85,49.518l36.12-26.3-.1-18.19c-11.32,3.62-22.06,6.66-32.81,10.88-7.63,8.7-14.08,18.81-20.88,28.19,6.42,2.31,11.77,4.09,17.67,5.42h0ZM116.25,43.728l-20.48-28.07L62.69,4.988c-.83,6.53-.82,12.31.08,18.46l36.19,26.21c6.17-1.58,11.69-3.28,17.29-5.92v-.01ZM38.92,94.328l44.79.03,13.82-42.78-36.22-26.4-36.28,26.31,9.72,31.04,4.16,11.8h.01ZM36.67,95.058l-14.07-43.02-17.29-5.46.03,35.17,20.53,28.13,10.8-14.82h0ZM96.71,109.748l20.55-28.15-.02-35.03-17.26,5.32-14.2,43.39,10.93,14.46v.01ZM94.61,111.368l-10.79-14.97h-45.04l-10.81,14.97,33.18,10.84,33.46-10.84Z"/>
</svg>