<?xml version="1.0" encoding="UTF-8"?>
<svg id="Camada_1" data-name="Camada 1" xmlns="http://www.w3.org/2000/svg" viewBox="0 0 118.49 132.622">
  <path d="M66.43,130.482c-5.11,2.95-9.67,2.74-14.34.05L6.57,104.252c-4.36-2.52-6.57-6.61-6.57-11.66v-53.07c0-4.57,2.24-8.68,6.19-10.97L51.73,2.222c4.92-2.84,9.7-3.03,14.7-.15l46.22,26.7c3.62,2.41,5.81,6.31,5.81,10.77l.03,54.11c-.32,4.12-2.3,7.64-5.6,10.01l-46.47,26.81.01.01ZM58.18,26.462l-.35-21.71L8.73,33.152l40.16-4.84c2.93-.35,5.99-1.16,9.29-1.85ZM96.36,31.742c4.59.63,8.47.86,12.71.94L60.88,4.792c-1.06,7.96-.98,14.45-.24,22.01l35.73,4.93-.01.01ZM25.97,82.512l30.73-52.97c-17.8,1.75-33.34,3.82-49.83,6.65l19.09,46.32h.01ZM111.44,36.092l-49.9-6.74,30.81,53.23,19.1-46.5-.01.01ZM90.45,84.232l-31.13-53.98-31.27,54.03s62.4-.05,62.4-.05ZM24.34,85.062L5.31,39.192l.02,56.63,19.01-10.76ZM113.33,95.932l-.11-57.21-19.09,46.32,19.21,10.89h-.01ZM90.06,86.832l-61.72-.12,30.86,40.14,30.86-40.02h0ZM56.1,126.702l-30.47-39.55c-6.6,3.63-12.42,6.99-19.03,11.12l49.51,28.43h-.01ZM111.85,98.272c-7.03-4.39-12.37-7.47-18.97-11.13l-29.89,39.13,48.86-28Z"/>
</svg>