<?xml version="1.0" encoding="UTF-8"?>
<svg id="Camada_1" data-name="Camada 1" xmlns="http://www.w3.org/2000/svg" viewBox="0 0 110.331 97.45">
  <path d="M103.64,97.45H6.62c-2.14-.01-4.83-1.58-5.89-3.21-.95-1.46-1.05-4.74.16-6.82L49.6,3.17C50.56,1.51,53.59-.01,55.13,0s4.61,1.5,5.57,3.15l49.04,84.83c.98,1.7.62,5.06-.2,6.39-.92,1.5-3.71,3.08-5.89,3.08h-.01ZM54.01,62.13l.73-23.1c-.07-10.96.06-21.24-1.16-32.43L5.71,89.64l48.3-27.52v.01ZM56.45,62.27l48.15,27.39L56.7,6.58c-1.3,11.53-1.1,22.16-1.15,33.46l.9,22.23ZM103.02,92.13l-47.91-27.98L7,92.18l96.02-.05h0Z"/>
</svg>