<?xml version="1.0" encoding="UTF-8"?>
<svg id="Camada_1" data-name="Camada 1" xmlns="http://www.w3.org/2000/svg" viewBox="0 0 111.78 125.152">
  <path d="M62.93,123.051c-4.22,2.44-9.06,2.9-13.03.61L5.52,98.051C2.26,96.171.04,91.711.03,88.001l-.03-50.16c0-4.23,2.01-8.65,5.76-10.82L50.2,1.381c2.93-1.69,7.93-1.92,10.94-.18l44.3,25.5c4.51,2.6,6.36,7.03,6.34,12.19l-.12,48.06c-.01,4.61-1.86,9.03-5.97,11.4l-42.78,24.71.02-.01ZM105.3,32.671L59.54,6.061c-2.72-1.15-5.9-.94-8.42.61L6.56,32.571l49.45,28.63,49.29-28.53h0ZM54.43,120.231l.14-57L5.25,34.871l-.18,53.5c0,1.76,2.03,4.74,3.6,5.64l45.77,26.22h-.01ZM101.94,94.691c2.52-1.41,4.69-4.09,4.69-6.75l-.14-53.14-49.46,28.49-.63,32.58.91,24.44,44.63-25.63v.01Z"/>
</svg>