<?xml version="1.0" encoding="UTF-8"?>
<svg id="Camada_1" data-name="Camada 1" xmlns="http://www.w3.org/2000/svg" viewBox="0 0 111.7 125.091">
  <path d="M62.78,123.105c-4.77,2.76-9.47,2.52-13.78.04L5.79,98.215C2.36,95.835,0,92.155,0,87.895v-49.98c-.01-5.03,2.47-9.06,6.77-11.53L49.97,1.525c3.24-1.87,8.13-2.11,11.41-.22l45.1,25.99c3.24,2.62,5.23,6.29,5.22,10.53l-.03,50.13c0,3.88-2.24,8.19-5.62,10.14l-43.28,25,.01.01ZM5.22,89.255L53.25,5.765,9.61,30.575c-2.24,1.42-3.89,3.54-4.64,6.13l.25,52.55h0ZM106.72,38.275c-.14-3.38-1.83-6.05-4.33-7.48L58.33,5.675l47.98,82.89.41-50.29h0ZM104.4,90.495L55.84,6.465,7.13,90.665l97.27-.18v.01ZM60.18,118.735l43.2-25.48-95.64-.07,44.8,26.13c1.78,1.04,5.82.49,7.64-.58Z"/>
</svg>